<svg width="26" height="26" viewBox="0 0 26 26" fill="none" xmlns="http://www.w3.org/2000/svg">
<path d="M25.3263 22.1537C26.2246 23.0528 26.2246 24.4515 25.3263 25.3506C24.8772 25.8002 24.3282 26 23.7294 26C23.1305 26 22.5816 25.8002 22.1324 25.3506L13 16.2094L3.86756 25.3506C3.41843 25.8002 2.86948 26 2.27063 26C1.67179 26 1.12284 25.8002 0.673704 25.3506C-0.224568 24.4515 -0.224568 23.0528 0.673704 22.1537L9.80614 13.0125L0.673704 3.87128C-0.224568 2.97214 -0.224568 1.57349 0.673704 0.674352C1.57198 -0.224784 2.96929 -0.224784 3.86756 0.674352L13 9.81556L22.1324 0.674352C23.0307 -0.224784 24.428 -0.224784 25.3263 0.674352C26.2246 1.57349 26.2246 2.97214 25.3263 3.87128L16.1939 13.0125L25.3263 22.1537Z" fill="#7B7B7B"/>
</svg>
