<svg width="108" height="108" viewBox="0 0 108 108" fill="none" xmlns="http://www.w3.org/2000/svg">
<path d="M19.65 37.49C19.5951 37.4451 19.5449 37.3949 19.5 37.34C19.5436 37.3804 19.5904 37.4172 19.64 37.45L19.65 37.49Z" fill="#D4D4D4"/>
<path d="M88.14 19.8899C86.6231 18.9894 84.9031 18.4872 83.14 18.4299C83.1677 16.3338 82.6509 14.2664 81.64 12.4299C80.3353 10.1163 78.3301 8.27635 75.9132 7.1748C73.4962 6.07324 70.7921 5.76693 68.19 6.29994C66.7522 6.63912 65.3939 7.25379 64.19 8.10994C63.0687 6.09349 61.3899 4.44304 59.3546 3.35629C57.3193 2.26954 55.0139 1.79257 52.7145 1.98251C50.4151 2.17246 48.2192 3.02127 46.3898 4.42726C44.5605 5.83326 43.1752 7.73683 42.4 9.90994C40.6027 9.81183 38.8043 10.0843 37.1167 10.7105C35.4292 11.3367 33.8883 12.3032 32.59 13.5499C31.3136 14.8204 30.3396 16.3618 29.74 18.0599C27.9502 17.2927 25.9888 17.0143 24.0562 17.2532C22.1236 17.4922 20.289 18.2399 18.74 19.4199C14.6 22.7499 14.9 28.1299 15 29.1699C15.3583 32.3796 16.9725 35.3169 19.49 37.3399C19.5336 37.3803 19.5804 37.4171 19.63 37.4499L21.39 54.1699L26.09 98.8399C26.2983 100.813 27.2322 102.638 28.7106 103.961C30.1889 105.284 32.1061 106.011 34.09 106H73.93C75.9139 106.011 77.8311 105.284 79.3094 103.961C80.7878 102.638 81.7217 100.813 81.93 98.8399L83.49 84.0399L79.49 83.8299L77.91 98.4599C77.8059 99.4464 77.3389 100.359 76.5997 101.021C75.8606 101.682 74.902 102.045 73.91 102.04H67.51L68.98 55.0399V54.9999L69.46 39.7899C71.2163 39.3054 72.9159 38.635 74.53 37.7899C76.53 36.7899 78.53 35.8799 80.23 35.8799C81.6756 35.9642 83.0883 36.3455 84.38 36.9999L82.61 53.7899L80.7 71.9199L84.7 72.1399L86.59 54.2099L88.4 36.9999C89.8147 36.1386 90.9949 34.9413 91.8357 33.5143C92.6766 32.0874 93.1521 30.4748 93.22 28.8199C93.4 23.2099 88.68 20.2099 88.14 19.8899ZM34.07 102C33.0781 102.005 32.1194 101.642 31.3803 100.981C30.6411 100.319 30.1741 99.4064 30.07 98.4199L25.37 53.7499L23.62 36.9999C24.9019 36.331 26.3077 35.9328 27.75 35.8299C29.48 35.8299 31.41 36.7599 33.45 37.7399C35.0641 38.585 36.7637 39.2554 38.52 39.7399L39 53.3299V53.5999L40.27 94.3399V94.5999L40.5 102.04L34.07 102ZM65 54.9399V54.9999L63.53 102H44.47L44.23 94.2899V94.2299L43 53.3399V53.2799L42.58 39.9399C44.5942 39.496 46.5364 38.7724 48.35 37.7899C50.35 36.7899 52.35 35.8799 54.05 35.8799C55.75 35.8799 57.71 36.8099 59.75 37.7899C61.5636 38.7724 63.5058 39.496 65.52 39.9399L65 54.9399ZM86.38 33.5699C84.4836 32.5682 82.3918 31.9915 80.25 31.8799C77.61 31.8799 75.17 33.0499 72.82 34.1799C70.82 35.1799 68.82 36.0899 67.13 36.0899C65.44 36.0899 63.47 35.1599 61.43 34.1799C59.08 33.0499 56.64 31.8799 54 31.8799C51.36 31.8799 48.92 33.0499 46.57 34.1799C44.57 35.1799 42.57 36.0899 40.87 36.0899C39.17 36.0899 37.22 35.1599 35.18 34.1799C32.82 33.0499 30.39 31.8799 27.75 31.8799C25.5225 31.9996 23.3498 32.6145 21.39 33.6799C20.0405 32.3783 19.1911 30.6441 18.99 28.7799C18.92 28.0999 18.72 24.5799 21.25 22.5299C22.3516 21.7343 23.6568 21.2685 25.0132 21.1871C26.3696 21.1056 27.7212 21.4118 28.91 22.0699C28.8294 23.1402 28.8595 24.2159 29 25.2799C29.0679 25.7605 29.3083 26.2 29.6762 26.5164C30.0442 26.8329 30.5147 27.0047 31 26.9999H31.3C31.5669 26.9637 31.8237 26.8738 32.0551 26.7358C32.2864 26.5979 32.4875 26.4146 32.6462 26.197C32.805 25.9794 32.9182 25.732 32.979 25.4696C33.0397 25.2072 33.0469 24.9352 33 24.6699C32.92 24.1499 32.31 19.4899 35.43 16.3899C38.55 13.2899 43.77 13.0299 47.95 15.6599C48.3982 15.9437 48.9408 16.0378 49.4584 15.9216C49.976 15.8053 50.4262 15.4882 50.71 15.0399C50.9938 14.5917 51.0879 14.0491 50.9716 13.5315C50.8553 13.0139 50.5382 12.5637 50.09 12.2799C48.9687 11.5698 47.7582 11.0116 46.49 10.6199C47.0661 9.45108 47.9095 8.43448 48.952 7.65262C49.9945 6.87076 51.2066 6.34567 52.49 6.11994C54.4554 5.90433 56.4351 6.37091 58.0974 7.44145C59.7596 8.51199 61.0033 10.1214 61.62 11.9999C61.7367 12.3243 61.9353 12.613 62.1965 12.838C62.4577 13.063 62.7727 13.2167 63.1107 13.2841C63.4488 13.3515 63.7986 13.3304 64.1261 13.2228C64.4536 13.1152 64.7478 12.9247 64.98 12.6699C66.0637 11.4468 67.4935 10.5819 69.08 10.1899C70.8412 9.84743 72.6655 10.0643 74.2973 10.8103C75.9291 11.5563 77.2867 12.7939 78.18 14.3499C79.1233 16.1423 79.4132 18.2071 79 20.1899C78.9363 20.5122 78.9529 20.8452 79.0485 21.1596C79.144 21.4739 79.3155 21.7599 79.5478 21.9922C79.7801 22.2245 80.0661 22.396 80.3804 22.4915C80.6947 22.587 81.0277 22.6037 81.35 22.5399C82.9724 22.2211 84.6553 22.498 86.09 23.3199C86.22 23.3999 89.34 25.3199 89.23 28.7299C89.1859 29.708 88.9031 30.6604 88.4063 31.504C87.9096 32.3477 87.2139 33.0569 86.38 33.5699Z" fill="#D4D4D4"/>
<path d="M83.9977 78.1107C84.0571 77.0077 83.211 76.0655 82.1081 76.0061C81.0051 75.9468 80.0629 76.7928 80.0035 77.8958C79.9442 78.9988 80.7902 79.941 81.8932 80.0004C82.9961 80.0597 83.9384 79.2137 83.9977 78.1107Z" fill="#D4D4D4"/>
</svg>
