<svg width="39" height="39" viewBox="0 0 39 39" fill="none" xmlns="http://www.w3.org/2000/svg">
<path d="M33.6538 31.3463L28.1288 25.8375C29.9114 23.5665 30.8786 20.7621 30.875 17.875C30.875 15.3038 30.1126 12.7904 28.6841 10.6526C27.2557 8.51475 25.2253 6.84851 22.8499 5.86457C20.4744 4.88063 17.8606 4.62319 15.3388 5.1248C12.8171 5.6264 10.5007 6.86454 8.68262 8.68262C6.86454 10.5007 5.6264 12.8171 5.1248 15.3388C4.62319 17.8606 4.88063 20.4744 5.86457 22.8499C6.84851 25.2253 8.51475 27.2557 10.6526 28.6841C12.7904 30.1126 15.3038 30.875 17.875 30.875C20.7621 30.8786 23.5665 29.9114 25.8375 28.1288L31.3463 33.6538C31.4973 33.8061 31.677 33.927 31.8751 34.0095C32.0731 34.092 32.2855 34.1344 32.5 34.1344C32.7145 34.1344 32.9269 34.092 33.1249 34.0095C33.323 33.927 33.5027 33.8061 33.6538 33.6538C33.8061 33.5027 33.927 33.323 34.0095 33.1249C34.092 32.9269 34.1344 32.7145 34.1344 32.5C34.1344 32.2855 34.092 32.0731 34.0095 31.8751C33.927 31.677 33.8061 31.4973 33.6538 31.3463ZM8.12501 17.875C8.12501 15.9466 8.69683 14.0616 9.76818 12.4582C10.8395 10.8548 12.3623 9.60513 14.1438 8.86718C15.9254 8.12923 17.8858 7.93614 19.7771 8.31235C21.6685 8.68855 23.4057 9.61715 24.7693 10.9807C26.1329 12.3443 27.0615 14.0816 27.4377 15.9729C27.8139 17.8642 27.6208 19.8246 26.8828 21.6062C26.1449 23.3877 24.8952 24.9105 23.2918 25.9818C21.6884 27.0532 19.8034 27.625 17.875 27.625C15.2891 27.625 12.8092 26.5978 10.9807 24.7693C9.15224 22.9408 8.12501 20.4609 8.12501 17.875Z" fill="#D5D5D5"/>
</svg>
